<svg fill="#FFFFFF" xmlns="http://www.w3.org/2000/svg" xmlns:xlink="http://www.w3.org/1999/xlink" version="1.1" x="0px" y="0px" viewBox="0 0 100 100" style="enable-background:new 0 0 100 100;" xml:space="preserve"><path d="M66.4,52.2H56v10.3H44V52.2H33.6v-12H44V29.8h12v10.3h10.3V52.2z M59.9,75.3c2.1,0.9,3.1,1.4,5.2,2.4  c1.2,0.6,2.9,0.2,3.7-0.8c3.4-4.2,5.3-6.2,6.5-6.9c2.5-1.5,5.3-2.2,7.8-3.9c1.2-0.8,2.6-2.3,3.1-3.5c5.4-12,6.6-18.3,7.7-31  c0.1-1.2-1.1-2.2-3.5-2.3c-2.7-0.1-3.7,0.5-4,1.8c-1.1,4.5-1.6,7.7-2.4,11.2c0.4,0.2,0.8,0.4,1.1,0.7c0.6,0.6,0.8,1.4,0.6,2.1v0  c-1.6,6.4-2.7,10.1-5.9,15.7c0,0,1.5-9.2,3.1-15.5c0.1-0.3,0.1-0.6,0-0.8c0-0.1-0.1-0.1-0.1-0.2c0-0.1-0.1-0.2-0.2-0.3c0,0,0,0,0,0  c0,0,0,0,0,0c-0.4-0.5-1-0.9-1.8-1c-1-0.1-1-0.2-2-0.3c-1.4-0.2-2.8,0.6-3.1,1.7c-1.4,5.5-2.4,8.7-4.4,13.2c-0.8,0.5-1.6,1-2.6,1.6  c-1.1,0.7-2.5,2-3,3c-3.7,7.3-1.4,3.7-6.8,10.5C58.3,73.6,58.7,74.8,59.9,75.3z M40.9,72.6c-5.4-6.8-3.1-3.2-6.8-10.5  c-0.5-1-1.8-2.4-3-3c-1-0.6-1.8-1.1-2.6-1.6c-2-4.5-3-7.7-4.4-13.2c-0.3-1.1-1.6-1.8-3.1-1.7c-1,0.1-1,0.2-2,0.3  c-0.8,0.1-1.4,0.5-1.8,1c0,0,0,0,0,0c0,0,0,0,0,0c-0.1,0.1-0.1,0.2-0.2,0.3c0,0.1-0.1,0.1-0.1,0.2c-0.1,0.3-0.1,0.5,0,0.8  c1.6,6.3,3.1,15.5,3.1,15.5c-3.2-5.6-4.3-9.4-5.9-15.7v0c-0.2-0.7,0-1.5,0.6-2.1c0.3-0.3,0.7-0.5,1.1-0.7c-0.8-3.5-1.4-6.6-2.4-11.2  c-0.3-1.3-1.3-1.9-4-1.8c-2.4,0.1-3.6,1.1-3.5,2.3c1.1,12.7,2.3,19,7.7,31c0.5,1.1,1.9,2.7,3.1,3.5c2.5,1.6,5.3,2.4,7.8,3.9  c1.2,0.7,3.1,2.7,6.5,6.9c0.8,1,2.5,1.4,3.7,0.8c2.1-0.9,3.1-1.4,5.2-2.4C41.3,74.8,41.7,73.6,40.9,72.6z"></path></svg>