<svg fill="#FFFFFF" xmlns="http://www.w3.org/2000/svg" xmlns:xlink="http://www.w3.org/1999/xlink" version="1.1" x="0px" y="0px" viewBox="0 0 100 100" enable-background="new 0 0 100 100" xml:space="preserve"><g><g><path fill="#FFFFFF" d="M38.993,25.542c0.229,0.004,0.368-0.227,0.578-0.279c1.609,0.777,3.197,1.6,4.804,2.381    c0.09,0.163-0.23,0.112-0.322,0.12c0.663,0.021,1.33-0.14,1.996-0.091c0.338,1.774,0.725,3.538,1.074,5.309    c1.06,0.223,2.136,0.378,3.2,0.586c0.181,0.02,0.369,0.105,0.549,0.039c3.375-1.205,6.753-2.4,10.128-3.604    c0.086-0.02,0.174-0.084,0.267-0.058c0.135,0.103,0.223,0.288,0.401,0.317c3.578,0.395,7.156,0.781,10.734,1.174    c0.249,0.037,0.341-0.373,0.591-0.288c2.67,1.011,5.33,2.055,8.002,3.056c0.452,0.803,0.982,1.562,1.438,2.364    c-0.049,0.074-0.092,0.162-0.187,0.181c-1.306,0.472-2.601,0.974-3.908,1.437c-0.24-0.116-0.369-0.432-0.663-0.435    c-3.288-0.526-6.571-1.1-9.862-1.607c-2.758,1.064-5.495,2.188-8.256,3.247c0,0.169,0.077,0.324,0.126,0.483    c0.22,0.637,0.414,1.282,0.638,1.918c4.218,1.539,8.437,3.077,12.656,4.611c0.273,0.104,0.571,0.168,0.809,0.35    c0.208,0.146,0.45,0.228,0.674,0.346c3.242,1.571,6.475,3.164,9.718,4.733c0.119-0.08,0.251-0.139,0.375-0.214    c1.182,0.662,2.333,1.383,3.503,2.069c1.055,0.628,2.109,1.256,3.162,1.886c0.017,0.02,0.049,0.06,0.065,0.08    c-0.188,0.114-0.382,0.217-0.572,0.322c0.8,1.422,1.62,2.834,2.427,4.251c0.298,0.489,0.545,1.012,0.87,1.481    c1.108,0.271,2.229,0.498,3.341,0.756c0.03,0.013,0.092,0.039,0.123,0.053c-0.134,0.225-0.301,0.428-0.419,0.662    c0.315,0.083,0.632,0.16,0.948,0.242c-0.37,0.545-0.795,1.054-1.191,1.581c-0.219,0.244,0.106,0.55,0.045,0.829    c-2.543,0.22-5.09,0.402-7.634,0.61c-0.11,0.024-0.205-0.043-0.291-0.099c-0.193,0.041-0.383,0.1-0.577,0.134    c-0.108,0.033-0.159-0.086-0.214-0.15c-0.944-1.27-1.903-2.529-2.854-3.794c-0.288-0.404-0.63-0.775-0.877-1.205    c0.125-0.026,0.252-0.059,0.373-0.105c-1.952-1.851-3.948-3.658-5.909-5.5c0.001-0.028,0.003-0.085,0.004-0.113    c-1.546-0.282-3.081-0.626-4.623-0.93c-2.215-0.462-4.436-0.901-6.649-1.371c-0.011-0.036-0.034-0.11-0.046-0.147    c-2.316,0.554-4.624,1.144-6.94,1.693c-0.047,0.116-0.013,0.244-0.012,0.366c0.066,0.854,0.114,1.708,0.177,2.562    c0.009,0.151,0.162,0.229,0.251,0.334c1.312,1.321,2.65,2.615,3.96,3.938c0.237,0.229,0.457,0.477,0.705,0.694    c0.205,0.065,0.428,0.055,0.643,0.083c-0.905,2.855-1.878,5.691-2.778,8.548c0.092,0.588,0.253,1.167,0.368,1.753    c0.033,0.095,0.021,0.256,0.149,0.282c0.727,0.229,1.446,0.483,2.177,0.698c-0.147,0.241-0.382,0.409-0.567,0.619    c0.083,0.046,0.166,0.094,0.247,0.146c-0.771,0.71-1.542,1.423-2.322,2.122c-1.472-0.184-2.964-0.28-4.444-0.418    c-2.215-0.208-4.434-0.379-6.646-0.599c0.115-0.443,0.229-0.888,0.341-1.332c0.074-0.018,0.148-0.034,0.224-0.052    c0.131-1.166,0.286-2.332,0.384-3.501c-0.194-0.03-0.387-0.067-0.58-0.098c0.892-1.744,1.843-3.461,2.756-5.194    c0.151-0.311,0.354-0.598,0.467-0.926c-2.701-2.788-5.407-5.571-8.107-8.361c-0.297-0.381-0.748-0.575-1.147-0.823    c-2.648-1.577-5.308-3.138-7.95-4.722c0.129-0.133,0.312-0.19,0.463-0.293c-0.409-0.7-0.886-1.359-1.321-2.043    c-1.034-1.578-2.084-3.146-3.106-4.732c-0.093,0-0.183,0.019-0.27,0.045c-2.156,0.602-4.317,1.184-6.472,1.792    c-0.03,0.164-0.078,0.324-0.104,0.489c-0.879-0.021-1.759-0.127-2.639-0.177c-4.088-0.317-8.179-0.602-12.267-0.927    c-0.01-0.048-0.031-0.146-0.042-0.193c-1.521-0.441-3.035-0.903-4.553-1.352c-0.224-0.06-0.441-0.175-0.679-0.146    c-0.758,0.053-1.517,0.116-2.275,0.168c-0.206-0.025-0.352,0.172-0.561,0.102c-0.484-0.077-0.981,0.068-1.455,0.024    c-0.104-0.232-0.402-0.128-0.602-0.167c0.097-0.827,0.333-1.635,0.467-2.458C3.376,40.879,3.139,40.744,3,40.529    c0.19-0.104,0.411-0.127,0.606-0.219c2.022-0.65,4.046-1.305,6.06-1.982c0.054-0.144,0.115-0.286,0.163-0.432    c0.291,0.023,0.579,0.081,0.871,0.094c0.17-0.027,0.324-0.114,0.497-0.126c0.091,0.088,0.17,0.221,0.308,0.234    c2.949,0.366,5.899,0.726,8.848,1.094c0.898,0.093,1.792,0.246,2.691,0.312c2.858-1.236,5.713-2.482,8.567-3.727    c-0.719-0.522-1.455-1.018-2.172-1.543c0.05-0.151-0.078-0.266-0.154-0.378c-0.853-1.172-1.697-2.35-2.549-3.522    c-0.062-0.111-0.193-0.125-0.302-0.162c0.007-0.074,0.015-0.147,0.025-0.221c-0.047-0.064-0.094-0.128-0.141-0.191    c0.151-0.182,0.467-0.068,0.611-0.27c1.007-1.168,2.001-2.349,3.017-3.51c0.234,0.06,0.471,0.17,0.712,0.067    C33.436,25.869,36.215,25.711,38.993,25.542z M31.414,27.396c-0.764,0.843-1.483,1.731-2.237,2.586    c-0.084,0.062,0.005,0.146,0.04,0.205c0.688,0.95,1.375,1.899,2.06,2.85c0.204,0.254,0.351,0.566,0.623,0.759    c1.004,0.708,2.01,1.415,3.011,2.128c-0.123,0.12-0.282,0.207-0.404,0.332c-3.832,1.677-7.674,3.338-11.507,5.014    c-0.104,0.037-0.2,0.108-0.313,0.104c-0.297-0.171-0.518-0.476-0.848-0.579c-3.521-0.438-7.042-0.868-10.562-1.306    c-0.156-0.035-0.307,0.023-0.453,0.069c-1.559,0.51-3.117,1.021-4.677,1.526c-0.1,0.044-0.273,0.039-0.281,0.183    c-0.056,0.314-0.155,0.625-0.171,0.945c0.809-0.068,1.621-0.121,2.43-0.19c0.235-0.104,0.49-0.01,0.736-0.044    c0.059,0.073,0.111,0.167,0.212,0.189c1.777,0.533,3.556,1.057,5.333,1.59c0.241,0.091,0.498,0.114,0.752,0.132    c3.658,0.27,7.314,0.545,10.972,0.821c0.259,0.026,0.501-0.088,0.748-0.147c2.366-0.65,4.73-1.309,7.098-1.953    c0.021-0.041,0.059-0.123,0.078-0.163c0.717-0.154,1.433-0.319,2.151-0.468c0.292,0.38,0.53,0.8,0.803,1.194    c1.652,2.515,3.31,5.025,4.96,7.54c0.058,0.085,0.119,0.172,0.21,0.228c2.294,1.361,4.591,2.721,6.884,4.083    c0.126,0.087,0.31,0.047,0.405,0.188c2.86,2.939,5.712,5.889,8.571,8.827c0.297,0.102,0.617,0.111,0.923,0.188    c-0.015,0.041-0.041,0.124-0.055,0.165c-0.893,1.667-1.781,3.337-2.673,5.005c-0.091,0.179-0.218,0.35-0.23,0.557    c-0.171,1.637-0.388,3.27-0.544,4.908c2.33,0.178,4.656,0.425,6.985,0.599c0.296-0.209,0.54-0.483,0.818-0.716    c-0.726-0.253-1.465-0.464-2.188-0.725c0.134-0.207,0.353-0.34,0.496-0.538c0.026-0.22-0.072-0.436-0.104-0.65    c-0.13-0.658-0.32-1.306-0.409-1.97c0.083-0.016,0.167-0.029,0.252-0.042c0.77-2.371,1.545-4.74,2.328-7.107    c0.009-0.073,0.082-0.173,0.009-0.233c-1.697-1.715-3.42-3.405-5.125-5.112c-0.104-0.106-0.222-0.201-0.296-0.331    c0.046-0.025,0.138-0.075,0.184-0.102c-0.081-1.468-0.214-2.933-0.283-4.401c0.666-0.033,1.336-0.016,2.002-0.057    c2.56-0.632,5.121-1.258,7.682-1.883c0.152,0.136,0.256,0.317,0.373,0.484c0.106-0.021,0.212-0.085,0.324-0.047    c4.129,0.852,8.262,1.69,12.39,2.545c-0.045,0.152-0.141,0.28-0.219,0.415c0.052-0.001,0.154-0.002,0.206-0.003    c2.051,1.901,4.108,3.796,6.146,5.709c-0.134,0.049-0.27,0.094-0.393,0.165c1.017,1.391,2.069,2.756,3.104,4.133    c1.621-0.096,3.237-0.274,4.858-0.358c-0.007-0.029-0.021-0.089-0.026-0.118c0.196-0.264,0.397-0.524,0.599-0.784    c0.044-0.077,0.138-0.141,0.131-0.237c-0.783-0.176-1.567-0.352-2.351-0.524c-0.239-0.066-0.479,0.021-0.713,0.062    c-1.439-2.444-2.808-4.935-4.244-7.381c-1.237-0.767-2.503-1.493-3.748-2.247c-0.096,0.05-0.191,0.097-0.284,0.146    c-3.588-1.755-7.176-3.509-10.769-5.255c-0.666-0.312-1.311-0.677-2.013-0.906c-2.968-1.08-5.936-2.162-8.904-3.241    c-1.213-0.456-2.444-0.865-3.646-1.346c0.078-0.094,0.156-0.189,0.233-0.284c-0.235,0.039-0.473,0.095-0.713,0.08    c-0.345-1.048-0.686-2.098-1.033-3.146c-0.07-0.249-0.33-0.36-0.492-0.541c0.126-0.065,0.262-0.136,0.285-0.292    c0.285-0.025,0.578-0.049,0.84-0.18c3.4-1.349,6.803-2.697,10.207-4.039c0.273,0.023,0.411,0.399,0.701,0.432    c3.299,0.535,6.595,1.092,9.896,1.621c0.35-0.111,0.697-0.237,1.033-0.385c-0.163-0.3-0.353-0.585-0.532-0.875    c-0.044-0.085-0.139-0.111-0.219-0.146c-1.748-0.667-3.495-1.339-5.242-2.008c-0.329-0.132-0.689-0.131-1.035-0.175    c-3.755-0.41-7.508-0.821-11.261-1.234c-0.116-0.012-0.235-0.032-0.344,0.02c-3.496,1.251-7,2.481-10.493,3.741    c-0.229-0.144-0.366-0.442-0.659-0.466c-1.355-0.238-2.711-0.482-4.07-0.703c-0.259-0.046-0.519-0.087-0.781-0.089    c-0.041-0.249-0.077-0.499-0.145-0.741c-0.128-0.244-0.453-0.339-0.553-0.601c0.126-0.029,0.251-0.065,0.38-0.083    c0.05-0.12-0.02-0.247-0.033-0.368c-0.199-0.97-0.402-1.94-0.595-2.913c-0.006-0.091-0.055-0.171-0.144-0.201    c-1.462-0.732-2.926-1.463-4.389-2.193c-0.107-0.045-0.214-0.118-0.336-0.104C36.563,27.087,33.987,27.227,31.414,27.396z"></path></g></g></svg>