<?xml version="1.0" encoding="UTF-8"?>
<svg width="578px" height="209px" viewBox="0 0 578 209" version="1.1" xmlns="http://www.w3.org/2000/svg" xmlns:xlink="http://www.w3.org/1999/xlink">
    <!-- Generator: Sketch 44 (41411) - http://www.bohemiancoding.com/sketch -->
    <title>Logo</title>
    <desc>Created with Sketch.</desc>
    <defs></defs>
    <g id="Logo" stroke="none" stroke-width="1" fill="none" fill-rule="evenodd">
        <g id="Desktop" transform="translate(-389.000000, -304.000000)">
            <g id="Logo" transform="translate(380.000000, 298.000000)">
                <g id="Mafia" transform="translate(59.000000, -0.000000)" letter-spacing="0.888888955" font-size="200" font-family="Futura-Medium, Futura" fill="#D0011B" font-weight="400">
                    <text>
                        <tspan x="0.0815970898" y="208">Mafia</tspan>
                    </text>
                </g>
                <g id="Hat">
                    <rect id="Rectangle" fill="#000000" transform="translate(87.500000, 80.500000) rotate(-40.000000) translate(-87.500000, -80.500000) " x="53" y="64" width="69" height="33"></rect>
                    <g id="fedora-hat" transform="translate(84.258608, 76.077257) rotate(-5.000000) translate(-84.258608, -76.077257) translate(5.758608, 6.577257)" fill-rule="nonzero" fill="#FFFFFF">
                        <path d="M108.849886,17.5880318 L114.765089,25.9182334 L124.624872,39.8029281 L124.150291,42.0729138 C124.061324,42.489693 123.209336,46.3129887 120.246991,52.038961 C115.748862,60.7316017 106.506727,73.588446 88.0260441,85.4735744 C84.5132274,87.7930302 52.7122495,108.2634 34.4605245,102.371075 L32.3447837,101.687465 L27.1231192,91.2882341 L19.1996035,75.5123973 L18.4547869,74.0282942 C9.91644499,82.826283 -8.30400032,105.150116 4.320962,124.770523 C4.320962,124.770523 23.6387619,157.424124 79.6807648,121.378873 C79.6807648,121.378873 169.283359,62.367191 155.462331,21.2862425 C155.463613,21.2877804 148.63053,1.45308819 108.849886,17.5880318 Z" id="Shape"></path>
                        <path d="M71.8408327,58.0317643 C95.1296205,43.0564205 103.003909,27.4405285 105.244769,21.6832849 L103.852564,19.7247302 L91.9313959,2.94077982 C79.7646047,-8.07951892 43.9300795,16.3510229 43.9300795,16.3510229 C6.56823145,40.38119 14.4245726,54.1687387 14.4245726,54.1687387 L22.4621824,70.1734709 L25.08045,75.385518 C37.737974,78.0640806 63.0386641,63.8318136 71.8408327,58.0317643 Z M32.6762976,48.5286342 C32.068394,47.1960173 32.6547608,45.6196383 33.9895337,45.011643 C43.6549716,40.6018831 55.3653863,32.9980974 55.4838391,32.9224825 C65.8743515,26.2396609 72.4338657,20.454222 76.1082089,16.7760044 C77.1445424,15.7381575 78.8251871,15.7381575 79.8633154,16.7726722 C80.7037659,17.6111007 80.8634977,18.8711786 80.3461001,19.8710899 C80.2240579,20.1066496 80.0627878,20.3291369 79.8648537,20.526761 C74.2527053,26.1455908 67.0193949,31.8154287 58.3687536,37.3783803 C57.8893019,37.6898113 46.2268324,45.2638637 36.1939858,49.8415144 C34.861264,50.4510476 33.2859961,49.8627891 32.6762976,48.5286342 Z" id="Shape"></path>
                        <path d="M33.5000828,92.154858 L36.0919421,97.317435 C52.4438078,102.596895 85.1524108,81.0061421 85.1524108,81.0061421 C114.519466,62.1185588 118.950164,40.9825209 118.950164,40.9825209 L115.73553,36.454084 C115.425809,37.1261597 115.076348,37.8459113 114.670994,38.6235916 C110.469254,46.7428404 100.99175,60.4101741 80.8583699,73.3595506 C79.5933354,74.194647 51.6792491,92.4250212 33.5000828,92.154858 Z" id="Shape"></path>
                    </g>
                </g>
            </g>
        </g>
    </g>
</svg>