<svg fill="#D0011B" xmlns="http://www.w3.org/2000/svg" xmlns:xlink="http://www.w3.org/1999/xlink" version="1.1" x="0px" y="0px" viewBox="0 0 512 512" enable-background="new 0 0 512 512" xml:space="preserve"><g><path d="M16.102,282.084h479.797c8.284,0,15-6.716,15-15s-6.716-15-15-15h-69.047c-1.141-43.729-9.392-78.087-21.71-105.08   L87.43,219.766c-1.209,10.158-1.984,20.923-2.281,32.318H16.102c-8.284,0-15,6.716-15,15S7.817,282.084,16.102,282.084z"></path><path d="M256,48.095c0,0-128.071-2.649-162.535,137.974l295.423-67.657C338.498,46.387,256,48.095,256,48.095z"></path><path d="M495.26,348.836c-10.253-3.113-22.003,3.708-37.988,22.088c-2.874-3.399-6.565-6.465-11.161-9.093   c-82.862-47.393-175.609-14.854-175.609-14.854c0.862,4.421,1.779,8.69,2.738,12.842c-4.909-1.854-9.266-2.954-12.361-3.583   c-1.489-0.647-3.152-0.941-4.878-0.785c-1.727-0.156-3.392,0.138-4.882,0.786c-3.095,0.629-7.451,1.729-12.357,3.582   c0.959-4.151,1.876-8.421,2.738-12.842c0,0-92.747-32.539-175.608,14.854c-4.595,2.628-8.287,5.693-11.161,9.093   c-15.987-18.38-27.738-25.206-37.988-22.088c-13.723,4.17-13.723,22.259-13.723,28.203c0,5.522,4.477,10,10,10s10-4.478,10-10   c0-3.8,0.303-6.298,0.624-7.877c2.953,1.74,8.942,6.322,18.857,18.25c1.471,1.769,2.888,3.534,4.23,5.245   c-1.308,60.759,132.638,151.812,184.54-5.808c9.016-7.615,20.256-10.355,24.728-11.185c4.439,0.828,15.711,3.58,24.736,11.192   c51.903,157.609,185.844,66.558,184.537,5.8c1.342-1.711,2.76-3.476,4.23-5.245c9.915-11.929,15.904-16.51,18.857-18.25   c0.321,1.579,0.624,4.076,0.624,7.877c0,5.522,4.478,10,10,10s10-4.478,10-10C508.982,371.095,508.982,353.006,495.26,348.836z"></path></g></svg>