<svg fill="#EBEBEB" xmlns="http://www.w3.org/2000/svg" xmlns:xlink="http://www.w3.org/1999/xlink" version="1.1" x="0px" y="0px" viewBox="0 0 100 100" style="enable-background:new 0 0 100 100;" xml:space="preserve"><path d="M89.5,59.5c-15.2-1.8-25.8-7.3-31.7-16.2c-9.2-14.1-3.6-32.8-3.5-33L56,5h-5.6c-24.8,0-45,20.2-45,45s20.2,45,45,45  c19.1,0,36.2-12.1,42.5-30.1l1.7-4.8L89.5,59.5z M50.4,86.8c-20.3,0-36.8-16.5-36.8-36.8c0-18.5,13.8-33.9,31.6-36.5  c-1.3,7.7-2.2,21.9,5.7,34.1c6.5,10,17.3,16.4,32.2,19.1C77,79,64.3,86.8,50.4,86.8z"></path></svg>