<svg fill="#FFFFFF" xmlns:dc="http://purl.org/dc/elements/1.1/" xmlns:cc="http://creativecommons.org/ns#" xmlns:rdf="http://www.w3.org/1999/02/22-rdf-syntax-ns#" xmlns:svg="http://www.w3.org/2000/svg" xmlns="http://www.w3.org/2000/svg" xmlns:sodipodi="http://sodipodi.sourceforge.net/DTD/sodipodi-0.dtd" xmlns:inkscape="http://www.inkscape.org/namespaces/inkscape" viewBox="0 0 32 32.000001" version="1.1" x="0px" y="0px"><g transform="translate(0,-1020.3622)"><path style="opacity:1;fill:#FFFFFF;fill-opacity:1;stroke:none;stroke-width:1;stroke-linecap:butt;stroke-linejoin:miter;stroke-miterlimit:4;stroke-dasharray:none;stroke-opacity:1" d="m 18.329089,1031.0043 a 1.000092,1 0 0 0 -0.984375,0.8242 l -0.386719,2.1523 c -0.432396,0.3174 -0.800784,0.6887 -1.140625,1.0782 0.675346,0.5159 1.231964,1.1309 1.675781,1.8086 a 5.0004595,4.833333 0 0 1 4,-1.9453 5.0004595,4.833333 0 0 1 5,4.832 5.0004595,4.833333 0 0 1 -5,4.834 5.0004595,4.833333 0 0 1 -2.765625,-0.8086 c -0.06906,0.356 -0.159762,0.7114 -0.28125,1.0625 -0.151501,0.4378 -0.341307,0.8548 -0.560547,1.2519 1.08583,0.5773 2.318635,0.9102 3.617188,0.9102 3.222143,0 6.081453,-1.9956 7.103515,-4.9492 1.022058,-2.9536 -0.0206,-6.209 -2.591797,-8.086 l -0.375,-2.1367 a 1.000092,1 0 0 0 -0.986328,-0.8281 z m 3.169922,1.2519 a 0.50005,0.50005 0 0 1 0.507812,0.5059 l 0,0.4863 a 0.50005,0.50005 0 1 1 -1,0 l 0,-0.4863 a 0.50005,0.50005 0 0 1 0.492188,-0.5059 z"></path><path style="opacity:1;fill:#FFFFFF;fill-opacity:1;stroke:none;stroke-width:1;stroke-linecap:butt;stroke-linejoin:miter;stroke-miterlimit:4;stroke-dasharray:none;stroke-opacity:1" d="m 7.342761,1033.5043 a 1.000092,1 0 0 0 -0.984376,0.8242 l -0.386718,2.1523 c -2.566238,1.8834 -3.602213,5.1407 -2.572266,8.0918 1.029924,2.9511 3.895058,4.9317 7.117188,4.9317 3.222143,0 6.081453,-1.9956 7.103515,-4.9492 1.022058,-2.9536 -0.0206,-6.209 -2.591797,-8.086 l -0.375,-2.1367 a 1.000092,1 0 0 0 -0.986328,-0.8281 z m 3.15625,1.1992 a 0.50005,0.50005 0 0 1 0.507812,0.5059 l 0,0.4863 a 0.50005,0.50005 0 1 1 -1,0 l 0,-0.4863 a 0.50005,0.50005 0 0 1 0.492188,-0.5059 z m 0.0078,2.7188 a 5.0004595,4.833333 0 0 1 5,4.832 5.0004595,4.833333 0 0 1 -5,4.834 5.0004595,4.833333 0 0 1 -5,-4.834 5.0004595,4.833333 0 0 1 5,-4.832 z"></path><path style="color:#000000;font-style:normal;font-variant:normal;font-weight:normal;font-stretch:normal;font-size:medium;line-height:normal;font-family:sans-serif;text-indent:0;text-align:start;text-decoration:none;text-decoration-line:none;text-decoration-style:solid;text-decoration-color:#000000;letter-spacing:normal;word-spacing:normal;text-transform:none;direction:ltr;writing-mode:lr-tb;baseline-shift:baseline;text-anchor:start;white-space:normal;clip-rule:nonzero;display:inline;overflow:visible;visibility:visible;opacity:1;isolation:auto;mix-blend-mode:normal;color-interpolation:sRGB;color-interpolation-filters:linearRGB;solid-color:#000000;solid-opacity:1;fill:#FFFFFF;fill-opacity:1;fill-rule:nonzero;stroke:none;stroke-width:1;stroke-linecap:butt;stroke-linejoin:round;stroke-miterlimit:4;stroke-dasharray:none;stroke-dashoffset:0;stroke-opacity:1;color-rendering:auto;image-rendering:auto;shape-rendering:auto;text-rendering:auto;enable-background:accumulate" d="m 15.194322,1023.223 c -0.960576,0 -1.75,0.7894 -1.75,1.75 0,0.057 0.01214,0.1103 0.01758,0.1661 -0.497362,0.2548 -0.954408,0.5795 -1.363281,0.9628 -0.202937,-0.083 -0.422835,-0.1289 -0.654297,-0.1289 -0.960576,0 -1.75,0.7894 -1.75,1.75 0,0.5522 0.265589,1.0417 0.669922,1.3633 -0.120681,0.5068 -0.177673,1.0245 -0.164063,1.5449 -0.173393,0.028 -0.344916,0.077 -0.501953,0.1661 l 0,-0.01 a 0.50005,0.50005 0 0 0 -0.002,0 c -0.466877,0.2686 -0.754118,0.7699 -0.751953,1.3086 l 0,0.7441 1,0 0,-0.7461 c -7.29e-4,-0.1814 0.09545,-0.3475 0.251953,-0.4375 0.156567,-0.088 0.345472,-0.086 0.5,0.01 a 0.50005,0.50005 0 0 0 0.002,0 c 0.155571,0.092 0.248708,0.2582 0.246094,0.4395 a 0.50005,0.50005 0 0 0 0,0.01 l 0,0.7324 1,0 0,-0.7246 c 0.0078,-0.5353 -0.27151,-1.0359 -0.730469,-1.3105 -0.03167,-0.4559 -0.0065,-0.9128 0.08594,-1.3594 0.04839,0 0.09515,0.016 0.144531,0.016 0.960576,0 1.75,-0.7895 1.75,-1.75 0,-0.3656 -0.115875,-0.7063 -0.310547,-0.9882 0.293538,-0.2597 0.615591,-0.4821 0.960938,-0.6661 0.321901,0.3948 0.805099,0.6543 1.349609,0.6543 0.761174,0 1.407886,-0.4998 1.646484,-1.1836 0.298679,0.039 0.590382,0.1015 0.876954,0.1934 -0.01113,0.079 -0.02344,0.1582 -0.02344,0.2402 0,0.9605 0.789424,1.75 1.75,1.75 0.281819,0 0.544508,-0.075 0.78125,-0.1953 0.154537,0.2112 0.294424,0.4332 0.414062,0.666 -0.430284,0.2762 -0.69738,0.7513 -0.695312,1.2657 l 0,0.7441 1,0 0,-0.7461 c -7.29e-4,-0.1813 0.09545,-0.3474 0.251953,-0.4375 0.156567,-0.088 0.345472,-0.086 0.5,0.01 a 0.50005,0.50005 0 0 0 0.002,0 c 0.155571,0.092 0.248708,0.2581 0.246094,0.4394 a 0.50005,0.50005 0 0 0 0,0.01 l 0,0.7324 1,0 0,-0.7246 c 0.0078,-0.5386 -0.274206,-1.0409 -0.738281,-1.3144 -0.172847,-0.1027 -0.363342,-0.156 -0.556641,-0.1836 -0.186847,-0.4106 -0.419989,-0.7983 -0.693359,-1.1563 0.146835,-0.2556 0.238281,-0.5457 0.238281,-0.8594 0,-0.9606 -0.789424,-1.75 -1.75,-1.75 -0.51093,0 -0.968016,0.2265 -1.289062,0.5801 -0.414287,-0.1433 -0.843278,-0.2372 -1.279297,-0.2871 -0.203626,-0.7406 -0.879724,-1.293 -1.681641,-1.293 z m 0,1 c 0.420136,0 0.75,0.3298 0.75,0.75 0,0.4201 -0.329864,0.75 -0.75,0.75 -0.420136,0 -0.75,-0.3299 -0.75,-0.75 0,-0.4202 0.329864,-0.75 0.75,-0.75 z m 4.25,1 c 0.420136,0 0.75,0.3298 0.75,0.75 0,0.4201 -0.329864,0.75 -0.75,0.75 -0.420136,0 -0.75,-0.3299 -0.75,-0.75 0,-0.4202 0.329864,-0.75 0.75,-0.75 z m -8,1.75 c 0.420136,0 0.75,0.3298 0.75,0.75 0,0.4201 -0.329864,0.75 -0.75,0.75 -0.420136,0 -0.75,-0.3299 -0.75,-0.75 0,-0.4202 0.329864,-0.75 0.75,-0.75 z"></path></g></svg>