<svg fill="#FFFFFF" xmlns="http://www.w3.org/2000/svg" xmlns:xlink="http://www.w3.org/1999/xlink" version="1.1" x="0px" y="0px" viewBox="0 0 100 100" enable-background="new 0 0 100 100" xml:space="preserve"><g><g><path fill-rule="evenodd" clip-rule="evenodd" d="M81.676,55.751c0.104,3.275,0.567,7.824,0.195,10.33    c-2.632,0.653-5.348,0.57-8.382,0.195c-1.218-3.229-0.312-8.317-0.195-11.501c2.274,0,4.548,0,6.822,0    C80.712,55.024,80.836,55.745,81.676,55.751z M76.218,58.089c-0.285,1.587-0.285,3.872,0,5.458c0.918,0.327,1.38-0.092,2.534,0    c0.232-1.688,0.445-4.447-0.195-5.848C77.382,57.434,77.191,58.153,76.218,58.089z"></path><path fill-rule="evenodd" clip-rule="evenodd" d="M69.396,54.971c0.481,4.122,0.99,7.727,0.585,11.696c-2.794,0-5.588,0-8.382,0    c-0.242-3.958-0.649-8.568,0.39-11.696C64.457,54.971,66.926,54.971,69.396,54.971z M65.106,57.894    c-0.243,1.74-0.32,4.125,0,5.849c0.521,0,1.04,0,1.56,0c0.827-1.384,0.641-4.146,0.391-6.043    C66.396,57.755,65.937,58.01,65.106,57.894z"></path><path fill-rule="evenodd" clip-rule="evenodd" d="M24.172,55.556c0.307,1.188,0.783,2.206,1.365,3.118    c-0.489,1.654,0.118,5.743-0.39,7.993c-2.079,0.166-5.854,0.593-7.602-0.195c-0.517-2.875-1.131-8.055,0-10.916    C19.436,55.216,21.805,55.755,24.172,55.556z M19.883,58.868c-0.031,1.981,0.17,3.729,0.39,5.458c0.585,0,1.169,0,1.754,0    c0.525-1.345,0.607-4.133,0-5.458C21.312,58.478,20.717,58.852,19.883,58.868z"></path><path fill-rule="evenodd" clip-rule="evenodd" d="M35.868,55.945c0.68,3.098-0.023,7.8-0.585,10.916    c-2.296-0.107-5.037,0.229-7.017-0.194c-0.852-3.145-0.674-7.445,0.195-10.722C30.93,55.945,33.398,55.945,35.868,55.945z     M31.384,64.132c2.154-0.237,1.236-4.186,1.169-6.043C29.613,57.409,30.307,63.219,31.384,64.132z"></path><path fill-rule="evenodd" clip-rule="evenodd" d="M30.995,20.663c1.624,0,3.249,0,4.873,0c-0.058,2.109,0.517,5.14,0.195,7.018    c10.981,0.73,22.408,0.195,34.308,0.195c0.839,0,1.809-0.074,2.534,0c0.284,0.029,1.294,0.843,1.364,0    c4.679,5.392,9.256,10.887,13.645,16.569c-0.492,1.993,1.904,2.967,2.34,4.678c0.378,1.488-0.188,3.229-0.195,4.873    c-0.038,8.088,0.489,18.618,0,25.537c-25.232,0.14-51.339,0.182-77.582,0.194c-0.783-0.562-1.735-1.278-2.924-1.364    c0.202-9.728-0.261-19.322,0-29.045c0.032-1.197-0.405-2.628-0.195-3.509c0.339-1.416,2.565-3.226,3.704-4.873    c3.534-5.111,7.419-9.354,11.696-13.645c1.356,0.265,3.212,0.178,5.263,0.195C30.279,25.326,29.252,21.911,30.995,20.663z     M32.944,27.485c0.25-1.292,0.606-4.372-0.585-4.873C32.207,23.839,32.371,26.344,32.944,27.485z M33.333,31.774    c-0.593,4.713,0.203,9.444-0.78,14.23c0.758,0.429,2.03-0.061,2.534,0c-0.435-3.91,0.082-9.458,0.195-14.035    C34.453,32.084,33.994,31.829,33.333,31.774z M26.901,31.969c-0.564,4.718,0.958,10.152-0.195,14.035    c0.526,0.383,1.703,0.116,2.534,0.195c-0.003-4.811,0.615-9.001,0.39-14.035C29.047,31.772,27.791,32.054,26.901,31.969z     M38.012,46.394c0.884-0.22,2.675,0.465,2.924-0.39c-0.261-0.053-0.906-0.225-0.975-0.975c0.603-4.197,0.26-8.542,0-12.866    c-0.39,0-0.779,0-1.169,0C38.404,37.123,39.193,42.54,38.012,46.394z M45.614,32.359c-0.068-0.243-1.124,0.161-1.754,0    c0.3,4.867-0.098,9.365,0.195,14.035c0.65,0,1.299,0,1.949,0C45.747,41.843,46.521,36.261,45.614,32.359z M49.902,46.394    c0.721-0.125,1.942,0.252,2.339-0.195c-1.042-3.947-0.648-9.869-0.584-13.84c-0.585,0-1.17,0-1.755,0    C49.747,38.049,50.271,42.136,49.902,46.394z M55.36,46.394c1.214-0.021,2.146-0.323,3.509-0.195    c0.363-5.016-0.119-8.9-0.39-13.645c-0.583-0.392-1.839-0.11-2.729-0.195C55.02,37.128,56.678,42.796,55.36,46.394z     M62.378,32.554c0.088,4.244,1.299,9.425,0.195,13.45c1.039,0,2.079,0,3.118,0c0.17-0.755-0.851-0.319-0.585-1.17    c-0.008-4.168-0.272-9.181-0.39-12.475C63.944,32.431,62.849,32.18,62.378,32.554z M68.615,32.554    c-0.115,3.858,1.36,10.103,0,13.45c0.583,0.392,1.84,0.11,2.729,0.195c-0.386-4.529,0.441-9.666-0.585-13.84    C70.214,32.592,69.415,32.573,68.615,32.554z M75.438,46.199c0.975,0,1.949,0,2.924,0c-0.086-2.349,0.058-5.834,0-8.772    c-1.084-1.188-2.09-2.364-3.314-2.924C75.176,38.673,75.622,42.661,75.438,46.199z M20.663,38.012    c0.935,1.888,0.741,5.848,0.78,7.992c1.104,0.103,1.167,0.035,2.339,0c-0.459-2.242,0.308-6.125,0-9.357    c-0.062-0.642-0.021-1.643-0.585-1.754C23.14,35.943,21.333,36.925,20.663,38.012z M16.18,43.47    c-0.69,0.899-1.938,1.937-1.559,2.729c0.719-0.451,2.271-0.068,3.313-0.195c0.283-1.364,0.717-4.58,0.195-5.458    C17.81,41.581,16.909,42.519,16.18,43.47z M81.676,46.588c1.168,0.147,1.948-0.529,2.729-0.195    c-1.035-1.304-1.469-3.21-2.925-4.093C81.518,43.758,81.354,45.416,81.676,46.588z M16.57,50.682    c-0.689-0.02-2.303-0.041-3.314,0.39c0.472,6.91-0.713,16.397,0.585,23.977c8.59,0.659,18.157,0.375,26.9,0.389    c0.767-5.926-1.152-10.947,0-16.374c0.766-3.604,5.118-6.165,8.772-5.848c2.732,0.238,7.328,3.807,7.992,6.043    c0.891,3.003-0.012,8.697,0,12.28c0.004,1.313,0.573,2.787-0.39,3.703c8.638-0.137,18.955-0.266,29.239-0.193    c1.033-7.804,0.222-15.677,0-23.782C64.134,50.474,38.061,51.299,16.57,50.682z M53.801,60.038    c-0.437-1.523-2.959-2.69-4.288-2.923c-2.564-0.449-4.221,1.419-5.263,3.118c0.437,3.78,0.149,10.05,0.195,15.204    c3.221-0.093,6.971,0.343,9.356-0.584C52.904,69.899,55.016,64.272,53.801,60.038z"></path></g></g></svg>